<?xml version="1.0" encoding="UTF-8"?>
<!DOCTYPE svg PUBLIC "-//W3C//DTD SVG 1.1//EN" "http://www.w3.org/Graphics/SVG/1.1/DTD/svg11.dtd">
<!-- Creator: CorelDRAW X8 -->
<svg xmlns="http://www.w3.org/2000/svg" xml:space="preserve" width="29.3891mm" height="10.315mm" version="1.1" style="shape-rendering:geometricPrecision; text-rendering:geometricPrecision; image-rendering:optimizeQuality; fill-rule:evenodd; clip-rule:evenodd"
viewBox="0 0 521 183"
 xmlns:xlink="http://www.w3.org/1999/xlink">
 <defs>
  <style type="text/css">
   <![CDATA[
    .fil0 {fill:black}
   ]]>
  </style>
 </defs>
 <g id="Слой_x0020_1">
  <metadata id="CorelCorpID_0Corel-Layer"/>
  <polygon class="fil0" points="35,152 43,150 43,164 36,164 36,156 "/>
  <polygon class="fil0" points="55,152 62,150 62,163 56,164 56,155 "/>
  <polygon class="fil0" points="58,124 63,123 63,137 57,137 57,128 "/>
  <polygon class="fil0" points="38,125 43,124 43,138 37,138 37,128 "/>
  <polygon class="fil0" points="35,98 43,96 43,110 36,110 36,102 "/>
  <polygon class="fil0" points="55,98 62,96 62,109 56,110 56,101 "/>
  <polygon class="fil0" points="103,137 110,135 110,148 104,149 103,140 "/>
  <polygon class="fil0" points="105,109 111,108 111,122 104,122 104,113 "/>
  <polygon class="fil0" points="103,82 110,81 110,94 104,95 103,86 "/>
  <path class="fil0" d="M56 182c153,0 306,1 460,1 7,0 7,-10 0,-10 -153,0 -307,3 -460,7 -2,0 -2,2 0,2z"/>
  <polygon class="fil0" points="408,124 416,122 416,137 409,137 408,128 "/>
  <polygon class="fil0" points="382,124 390,121 390,136 383,137 383,127 "/>
  <polygon class="fil0" points="385,93 391,92 391,107 384,108 384,97 "/>
  <polygon class="fil0" points="410,92 416,91 416,106 409,107 409,96 "/>
  <polygon class="fil0" points="408,60 416,58 416,73 409,73 408,64 "/>
  <polygon class="fil0" points="382,64 390,62 390,77 383,77 383,68 "/>
  <polygon class="fil0" points="337,67 344,66 344,79 338,80 338,71 "/>
  <polygon class="fil0" points="340,94 345,94 345,107 339,107 339,98 "/>
  <polygon class="fil0" points="337,122 344,120 344,133 338,134 338,125 "/>
  <path class="fil0" d="M81 174c-3,0 14,-4 21,-5 8,-1 16,-2 23,-2 16,-1 33,-2 49,-2 17,-1 35,0 53,1 16,2 34,6 50,7 8,1 8,-9 0,-10 -20,-2 -76,-6 -108,-4 -16,1 -32,2 -48,4 -8,1 -16,2 -23,4 -4,1 -8,2 -11,3 -2,1 -3,2 -5,2 -3,2 -2,2 -1,2z"/>
  <polygon class="fil0" points="3,87 0,164 3,164 "/>
  <polygon class="fil0" points="89,79 86,157 89,158 "/>
  <path class="fil0" d="M88 74c0,0 2,-6 1,-7 8,0 15,0 23,-2 2,-1 2,-4 -1,-4 -8,1 -17,2 -26,4 0,0 -1,5 0,6 -2,1 -34,5 -42,6 -13,2 -26,4 -39,6 -1,1 0,2 0,1 36,-4 84,-10 84,-10z"/>
  <path class="fil0" d="M126 50c-2,16 -3,31 -4,47 -1,7 -1,15 -1,22 0,3 0,6 -1,9 0,2 0,3 0,5 0,1 0,3 0,2 0,1 3,1 3,0 0,1 1,-1 1,-1 0,-2 0,-3 1,-5 0,-3 0,-6 0,-9 1,-8 1,-15 1,-23 0,-16 0,-31 2,-47 0,-1 -2,-1 -2,0z"/>
  <path class="fil0" d="M145 45c-2,16 -2,33 -4,50 0,8 0,16 -1,24 0,5 0,10 0,15 1,5 11,4 11,-1 -2,-13 -1,-25 -2,-38 0,-17 1,-34 -2,-51 0,-1 -2,0 -2,1z"/>
  <path class="fil0" d="M170 43c-2,16 -2,33 -3,50 -1,8 -1,16 -2,24 0,5 0,10 1,15 0,5 10,4 10,-1 -1,-13 -1,-25 -2,-38 0,-17 1,-34 -2,-51 0,-1 -2,0 -2,1z"/>
  <path class="fil0" d="M198 40c-1,0 -1,0 -1,1 0,1 0,2 0,3 -1,3 -1,6 -1,9 0,6 0,12 0,18 0,10 -1,20 -1,30 0,5 0,10 0,15 0,5 -1,11 0,16 0,3 9,3 9,0 1,-5 0,-10 0,-14 0,-6 0,-11 0,-17 0,-10 0,-20 -1,-30 0,-7 -1,-13 -2,-19 0,-3 0,-7 -1,-9 0,-2 0,-3 -1,-4 -1,0 -2,1 -1,1z"/>
  <path class="fil0" d="M226 44c-2,16 -2,33 -2,50 0,12 0,24 0,37 0,6 11,6 11,0 0,-5 -1,-10 -1,-14 -1,-8 -1,-16 -2,-23 -1,-17 -2,-34 -5,-50 0,-1 -1,-1 -1,0z"/>
  <path class="fil0" d="M253 48c-3,6 -2,13 -2,20 0,7 0,14 0,21 1,14 1,28 2,43 0,4 9,4 9,0 0,-15 -1,-29 -2,-43 -1,-7 -1,-14 -2,-21 -1,-7 -1,-14 -4,-20 0,0 -1,0 -1,0z"/>
  <path class="fil0" d="M121 56c-6,-19 27,-22 42,-23 25,-2 52,0 76,5 5,1 9,2 14,3 0,0 1,1 2,1 2,1 5,3 9,-1 3,-7 -2,-7 -7,-9 -20,-5 -42,-6 -62,-6 -14,0 -27,1 -40,3 -10,1 -21,4 -29,9 -7,5 -9,11 -7,18 0,1 2,1 2,0z"/>
  <path class="fil0" d="M118 42c-5,-19 18,-28 37,-31 15,-3 30,-4 45,-4 10,0 19,1 29,1 5,1 9,1 15,2 2,0 5,0 7,1 3,0 6,0 8,1 4,1 8,0 9,-3 2,-5 -3,-8 -8,-7 -2,0 -5,0 -7,-1 -3,0 -5,0 -8,0 -5,0 -11,-1 -16,-1 -11,0 -21,0 -31,1 -16,0 -33,2 -48,6 -19,5 -38,17 -33,35 0,0 1,0 1,0z"/>
  <path class="fil0" d="M268 11c4,1 8,1 11,1l6 0c0,0 1,1 2,1 -1,4 -1,10 -1,10 0,2 2,4 4,3 6,-1 12,-1 18,-1 2,-1 4,-1 6,-1 9,-1 18,-2 28,-3 14,-1 29,-2 44,-3l-93 8 0 10 126 -14 -3 -6 -23 2c4,-2 3,-9 -2,-9 -17,1 -34,2 -51,4 -8,1 -17,3 -26,4 -2,0 -5,1 -7,1 -2,0 -3,1 -4,1 -3,1 -7,1 -10,2 -1,0 0,-6 -1,-10 0,-1 -1,-3 -2,-3 -7,0 -15,2 -22,2 0,1 0,1 0,1z"/>
  <path class="fil0" d="M297 45c63,-7 127,-10 190,-17 8,0 8,-10 0,-9 -63,6 -127,13 -190,24 -1,0 -1,2 0,2z"/>
  <path class="fil0" d="M269 109c0,0 -1,2 0,4 0,2 2,4 2,4 0,0 1,-1 2,-2 0,-2 -3,-5 -4,-7 0,-1 0,1 0,1z"/>
  <path class="fil0" d="M329 147c0,-3 0,-6 0,-9 0,-3 -1,-7 -1,-8 0,-1 -1,-4 -8,-4 -3,0 -6,0 -9,1 2,-3 4,-6 4,-9 1,-3 1,-5 0,-8 0,-1 -2,-3 -1,-4 1,-3 -7,-7 -8,-6 0,1 1,6 2,7 2,3 3,-1 5,3 1,2 2,5 1,8 -2,4 -11,8 -12,7 -6,-7 -12,-28 -17,-36 0,0 1,-1 1,-2 0,-2 -2,-3 -5,-3 -1,0 -4,-1 -4,1 0,2 -1,1 0,5 1,0 2,0 3,0 0,0 0,0 1,0l0 0 0 0c2,9 5,28 11,36 -7,0 -15,-3 -18,-9 -1,0 -1,0 -1,0 2,5 4,10 10,12 -10,1 -17,2 -17,2 0,1 1,5 1,6 0,1 0,2 0,3 0,1 0,2 0,4 0,-1 -1,-1 -2,-1 -3,0 -7,0 -11,-1 -7,0 -14,0 -21,-1 -15,0 -29,-1 -44,0 -29,1 -58,4 -85,10 -1,0 -1,1 0,1 29,-5 59,-7 88,-7 15,0 30,0 45,1 8,1 15,2 22,3 4,0 7,0 10,1 2,0 3,1 4,0 1,5 9,3 7,-1 0,0 0,-1 0,-1 0,-1 0,-2 -1,-3 0,-1 0,-2 -1,-3 0,-3 -1,-5 -2,-8 9,-1 18,-1 27,0l1 12 -4 22 27 -2 0 0 1 0c22,1 131,3 134,3 2,0 -1,-4 -2,-5 -1,-3 -3,-6 -3,-6l-24 0 -5 -110 -1 110 -64 0 -1 -93 -3 92 -29 0c0,-3 -1,-6 -1,-10z"/>
  <path class="fil0" d="M94 159c2,0 3,-1 4,-1 4,-1 8,-2 12,-2 7,-2 15,-3 23,-3 16,-1 33,-2 49,-1 17,0 34,1 50,3 10,1 19,2 29,3 4,0 9,1 14,1 0,1 1,1 2,1 5,0 6,-4 2,-5 -2,0 -3,0 -4,0 -2,0 -5,0 -13,-1 -9,-1 -18,-2 -28,-2 -17,-2 -34,-3 -51,-3 -30,0 -62,2 -90,10 0,0 -1,1 1,0z"/>
 </g>
</svg>
